<svg xmlns="http://www.w3.org/2000/svg" xmlns:xlink="http://www.w3.org/1999/xlink" version="1.1" width="1000" height="1000" viewBox="0 0 1000 1000" xml:space="preserve">
<desc>Created with Fabric.js 3.5.0</desc>
<defs>
</defs>
<rect x="0" y="0" width="100%" height="100%" fill="#ffffff"/>
<g transform="matrix(7.3982 0 0 7.3982 499.9999 499.9999)" id="899571">
<path style="stroke: none; stroke-width: 1; stroke-dasharray: none; stroke-linecap: butt; stroke-dashoffset: 0; stroke-linejoin: miter; stroke-miterlimit: 4; is-custom-font: none; font-file-url: none; fill: rgb(79,70,229); fill-rule: evenodd; opacity: 1;" vector-effect="non-scaling-stroke" transform=" translate(-61.44, -36.645)" d="M 61.44 0 Q 36.87 0 30.72 24.43 q 9.22 -12.21 21.5 -9.16 c 4.68 1.16 8 4.53 11.72 8.26 c 6 6.08 13 13.11 28.22 13.11 q 24.57 0 30.72 -24.43 q -9.21 12.22 -21.5 9.16 c -4.68 -1.16 -8 -4.53 -11.72 -8.26 C 83.64 7 76.67 0 61.44 0 Z M 30.72 36.64 Q 6.15 36.64 0 61.07 q 9.23 -12.21 21.5 -9.16 c 4.68 1.16 8 4.53 11.72 8.27 c 6 6.07 13 13.11 28.22 13.11 q 24.57 0 30.72 -24.43 Q 82.95 61.07 70.66 58 c -4.68 -1.16 -8 -4.53 -11.72 -8.26 c -6 -6.08 -13 -13.12 -28.22 -13.12 Z" stroke-linecap="round"/>
</g>
</svg>